<svg width="146" height="29" viewBox="0 0 146 29" fill="none" xmlns="http://www.w3.org/2000/svg">
<path d="M128.739 14.5188C127.984 14.0148 127.153 13.6564 126.366 13.2084C125.856 12.9172 125.312 12.6595 124.869 12.2899C124.115 11.6627 124.27 10.4307 125.058 9.89309C126.189 9.13148 128.062 9.55701 128.262 11.1139C128.262 11.1475 128.295 11.17 128.328 11.17H130.036C130.081 11.17 130.114 11.1363 130.103 11.0916C130.014 10.0163 129.604 9.12024 128.85 8.54902C128.129 8.00019 127.309 7.70898 126.432 7.70898C121.92 7.70898 121.509 12.5364 123.937 14.0597C124.215 14.2389 126.598 15.4485 127.442 15.9749C128.284 16.5013 128.55 17.4645 128.184 18.2262C127.851 18.9206 126.987 19.4022 126.122 19.3462C125.179 19.2902 124.448 18.775 124.193 17.9686C124.148 17.823 124.126 17.5429 124.126 17.4198C124.126 17.3861 124.093 17.3525 124.059 17.3525H122.208C122.175 17.3525 122.142 17.3861 122.142 17.4198C122.142 18.775 122.474 19.5254 123.383 20.2087C124.237 20.8583 125.168 21.1271 126.133 21.1271C128.661 21.1271 129.97 19.6822 130.235 18.1814C130.468 16.7141 130.036 15.3925 128.739 14.5188Z" fill="white"/>
<path d="M48.3424 7.95703H47.5219H46.6238C46.5905 7.95703 46.5683 7.97943 46.5572 8.00183L45.0383 13.0644C45.0161 13.1317 44.9274 13.1317 44.9052 13.0644L43.3862 8.00183C43.3751 7.96823 43.3529 7.95703 43.3197 7.95703H42.4216H41.6011H40.4924C40.4591 7.95703 40.4258 7.99063 40.4258 8.02423V20.9496C40.4258 20.9831 40.4591 21.0167 40.4924 21.0167H42.344C42.3773 21.0167 42.4105 20.9831 42.4105 20.9496V11.1267C42.4105 11.0483 42.5214 11.0372 42.5436 11.1043L44.0736 16.2006L44.1845 16.5589C44.1956 16.5926 44.2178 16.6038 44.2511 16.6038H45.6703C45.7035 16.6038 45.7257 16.5813 45.7368 16.5589L45.8477 16.2006L47.3778 11.1043C47.4 11.0259 47.5108 11.0483 47.5108 11.1267V20.9496C47.5108 20.9831 47.5441 21.0167 47.5773 21.0167H49.429C49.4622 21.0167 49.4955 20.9831 49.4955 20.9496V8.02423C49.4955 7.99063 49.4622 7.95703 49.429 7.95703H48.3424Z" fill="white"/>
<path d="M100.388 7.95703C100.355 7.95703 100.333 7.97943 100.321 8.00183L98.8031 13.0644C98.7809 13.1317 98.6922 13.1317 98.67 13.0644L97.1508 8.00183C97.1397 7.96823 97.1175 7.95703 97.0842 7.95703H94.2677C94.2345 7.95703 94.2012 7.99063 94.2012 8.02423V20.9496C94.2012 20.9831 94.2345 21.0167 94.2677 21.0167H96.1198C96.1531 21.0167 96.1864 20.9831 96.1864 20.9496V11.1267C96.1864 11.0483 96.2973 11.0372 96.3195 11.1043L97.8489 16.2006L97.9599 16.5589C97.971 16.5926 97.9932 16.6038 98.0265 16.6038H99.4458C99.4791 16.6038 99.5013 16.5813 99.5124 16.5589L99.6233 16.2006L101.154 11.1043C101.176 11.0259 101.287 11.0483 101.287 11.1267V20.9496C101.287 20.9831 101.32 21.0167 101.353 21.0167H103.204C103.238 21.0167 103.271 20.9831 103.271 20.9496V8.02423C103.271 7.99063 103.238 7.95703 103.204 7.95703H100.388Z" fill="white"/>
<path d="M76.5041 7.95703H73.0558H71.2042H67.756C67.7227 7.95703 67.6895 7.99063 67.6895 8.02423V9.63706C67.6895 9.67069 67.7227 9.70431 67.756 9.70431H71.1377V20.9496C71.1377 20.9831 71.1709 21.0167 71.2042 21.0167H73.0558C73.0891 21.0167 73.1224 20.9831 73.1224 20.9496V9.70431H76.5041C76.5374 9.70431 76.5706 9.67069 76.5706 9.63706V8.02423C76.5706 7.99063 76.5485 7.95703 76.5041 7.95703Z" fill="white"/>
<path d="M87.4259 21.0146H89.1106C89.155 21.0146 89.1883 20.9699 89.1772 20.9251L85.6959 7.95496C85.6848 7.92136 85.6626 7.91016 85.6293 7.91016H84.9864H83.8554H83.2123C83.179 7.91016 83.1569 7.93256 83.1458 7.95496L79.6643 20.9251C79.6532 20.9699 79.6865 21.0146 79.7308 21.0146H81.4161C81.4494 21.0146 81.4716 20.9923 81.4827 20.9699L82.4917 17.1953C82.5027 17.1617 82.5249 17.1505 82.5581 17.1505H86.2839C86.3172 17.1505 86.3394 17.1729 86.3505 17.1953L87.3593 20.9699C87.3704 20.9923 87.4037 21.0146 87.4259 21.0146ZM83.0016 15.3025L84.3544 10.251C84.3765 10.1839 84.4652 10.1839 84.4874 10.251L85.8401 15.3025C85.8512 15.3472 85.8179 15.392 85.7735 15.392H83.0682C83.0238 15.392 82.9906 15.3472 83.0016 15.3025Z" fill="white"/>
<path d="M116.166 21.0146H117.851C117.895 21.0146 117.928 20.9699 117.917 20.9251L114.436 7.95496C114.425 7.92136 114.403 7.91016 114.369 7.91016H113.727H112.596H111.952C111.919 7.91016 111.897 7.93256 111.886 7.95496L108.404 20.9251C108.393 20.9699 108.427 21.0146 108.471 21.0146H110.157C110.19 21.0146 110.212 20.9923 110.223 20.9699L111.232 17.1953C111.243 17.1617 111.265 17.1505 111.299 17.1505H115.024C115.057 17.1505 115.08 17.1729 115.091 17.1953L116.099 20.9699C116.111 20.9923 116.133 21.0146 116.166 21.0146ZM111.742 15.3025L113.094 10.251C113.117 10.1839 113.205 10.1839 113.227 10.251L114.58 15.3025C114.591 15.3472 114.558 15.392 114.514 15.392H111.808C111.764 15.392 111.73 15.3472 111.742 15.3025Z" fill="white"/>
<path d="M57.014 19.1V15.0902C57.014 15.0567 57.0473 15.0231 57.0805 15.0231H62.0145C62.0478 15.0231 62.081 14.9895 62.081 14.9558V13.343C62.081 13.3094 62.0478 13.2758 62.0145 13.2758H57.0805C57.0473 13.2758 57.014 13.2422 57.014 13.2086V9.7813C57.014 9.74767 57.0473 9.71405 57.0805 9.71405H62.6909C62.7241 9.71405 62.7574 9.68043 62.7574 9.64689V8.034C62.7574 8.0004 62.7241 7.9668 62.6909 7.9668H57.014H55.0959C55.0626 7.9668 55.0293 8.0004 55.0293 8.034V9.71405V13.287V15.0343V19.1784V20.9481C55.0293 20.9817 55.0626 21.0153 55.0959 21.0153H57.014H62.9237C62.957 21.0153 62.9903 20.9817 62.9903 20.9481V19.2457C62.9903 19.212 62.957 19.1784 62.9237 19.1784H57.0694C57.0362 19.1673 57.014 19.1448 57.014 19.1Z" fill="white"/>
<path d="M145.659 20.9033L139.25 14.2166C139.228 14.1942 139.228 14.1494 139.25 14.1271L145.016 8.0788C145.06 8.034 145.027 7.9668 144.972 7.9668H142.61C142.588 7.9668 142.577 7.978 142.566 7.9892L137.676 13.119C137.632 13.1638 137.565 13.1302 137.565 13.0742V8.034C137.565 8.0004 137.532 7.9668 137.499 7.9668H135.647C135.613 7.9668 135.58 8.0004 135.58 8.034V20.9593C135.58 20.9929 135.613 21.0266 135.647 21.0266H137.499C137.532 21.0266 137.565 20.9929 137.565 20.9593V15.2695C137.565 15.2135 137.643 15.1799 137.676 15.2247L143.22 21.0041C143.231 21.0153 143.253 21.0266 143.264 21.0266H145.625C145.67 21.0153 145.703 20.9369 145.659 20.9033Z" fill="white"/>
<path d="M27.776 1L16.5664 9.40032L18.6509 4.44974L27.776 1Z" fill="#E17726" stroke="#E17726" stroke-width="0.25" stroke-linecap="round" stroke-linejoin="round"/>
<path d="M1.91797 1L13.0278 9.47872L11.0431 4.44973L1.91797 1Z" fill="#E27625" stroke="#E27625" stroke-width="0.25" stroke-linecap="round" stroke-linejoin="round"/>
<path d="M23.7394 20.4785L20.7568 25.0931L27.1433 26.874L28.9728 20.5794L23.7394 20.4785Z" fill="#E27625" stroke="#E27625" stroke-width="0.25" stroke-linecap="round" stroke-linejoin="round"/>
<path d="M0.731445 20.5794L2.54981 26.874L8.92523 25.0931L5.95372 20.4785L0.731445 20.5794Z" fill="#E27625" stroke="#E27625" stroke-width="0.25" stroke-linecap="round" stroke-linejoin="round"/>
<path d="M8.58161 12.6834L6.80762 15.3939L13.1276 15.6851L12.9169 8.79688L8.58161 12.6834Z" fill="#E27625" stroke="#E27625" stroke-width="0.25" stroke-linecap="round" stroke-linejoin="round"/>
<path d="M21.1123 12.6817L16.7106 8.7168L16.5664 15.6835L22.8863 15.3923L21.1123 12.6817Z" fill="#E27625" stroke="#E27625" stroke-width="0.25" stroke-linecap="round" stroke-linejoin="round"/>
<path d="M8.92676 25.092L12.7519 23.2216L9.45899 20.623L8.92676 25.092Z" fill="#E27625" stroke="#E27625" stroke-width="0.25" stroke-linecap="round" stroke-linejoin="round"/>
<path d="M16.9434 23.2216L20.7575 25.092L20.2363 20.623L16.9434 23.2216Z" fill="#E27625" stroke="#E27625" stroke-width="0.25" stroke-linecap="round" stroke-linejoin="round"/>
<path d="M20.7575 25.0911L16.9434 23.2207L17.2538 25.7296L17.2205 26.7936L20.7575 25.0911Z" fill="#D5BFB2" stroke="#D5BFB2" stroke-width="0.25" stroke-linecap="round" stroke-linejoin="round"/>
<path d="M8.92676 25.0911L12.4748 26.7936L12.4526 25.7296L12.7519 23.2207L8.92676 25.0911Z" fill="#D5BFB2" stroke="#D5BFB2" stroke-width="0.25" stroke-linecap="round" stroke-linejoin="round"/>
<path d="M12.5393 18.9668L9.36816 18.026L11.6079 16.9844L12.5393 18.9668Z" fill="#233447" stroke="#233447" stroke-width="0.25" stroke-linecap="round" stroke-linejoin="round"/>
<path d="M17.1533 18.9668L18.0847 16.9844L20.3355 18.026L17.1533 18.9668Z" fill="#233447" stroke="#233447" stroke-width="0.25" stroke-linecap="round" stroke-linejoin="round"/>
<path d="M8.92458 25.0931L9.479 20.4785L5.95312 20.5794L8.92458 25.0931Z" fill="#CC6228" stroke="#CC6228" stroke-width="0.25" stroke-linecap="round" stroke-linejoin="round"/>
<path d="M20.2129 20.4785L20.7562 25.0931L23.7388 20.5794L20.2129 20.4785Z" fill="#CC6228" stroke="#CC6228" stroke-width="0.25" stroke-linecap="round" stroke-linejoin="round"/>
<path d="M22.8863 15.3926L16.5664 15.6838L17.154 18.9656L18.0854 16.983L20.3362 18.0247L22.8863 15.3926Z" fill="#CC6228" stroke="#CC6228" stroke-width="0.25" stroke-linecap="round" stroke-linejoin="round"/>
<path d="M9.36885 18.0247L11.6085 16.983L12.5399 18.9656L13.1276 15.6838L6.80762 15.3926L9.36885 18.0247Z" fill="#CC6228" stroke="#CC6228" stroke-width="0.25" stroke-linecap="round" stroke-linejoin="round"/>
<path d="M6.80762 15.3926L9.45758 20.6232L9.36882 18.0247L6.80762 15.3926Z" fill="#E27525" stroke="#E27525" stroke-width="0.25" stroke-linecap="round" stroke-linejoin="round"/>
<path d="M20.3361 18.0247L20.2363 20.6232L22.8863 15.3926L20.3361 18.0247Z" fill="#E27525" stroke="#E27525" stroke-width="0.25" stroke-linecap="round" stroke-linejoin="round"/>
<path d="M13.1277 15.6836L12.54 18.9654L13.2829 22.8407L13.4492 17.7333L13.1277 15.6836Z" fill="#E27525" stroke="#E27525" stroke-width="0.25" stroke-linecap="round" stroke-linejoin="round"/>
<path d="M16.5664 15.6836L16.2559 17.7222L16.4111 22.8407L17.154 18.9654L16.5664 15.6836Z" fill="#E27525" stroke="#E27525" stroke-width="0.25" stroke-linecap="round" stroke-linejoin="round"/>
<path d="M17.153 18.9663L16.4102 22.8415L16.9424 23.2224L20.2354 20.6239L20.3352 18.0254L17.153 18.9663Z" fill="#F5841F" stroke="#F5841F" stroke-width="0.25" stroke-linecap="round" stroke-linejoin="round"/>
<path d="M9.36816 18.0254L9.45693 20.6239L12.7499 23.2224L13.2821 22.8415L12.5393 18.9663L9.36816 18.0254Z" fill="#F5841F" stroke="#F5841F" stroke-width="0.25" stroke-linecap="round" stroke-linejoin="round"/>
<path d="M17.2203 26.7943L17.2535 25.7302L16.9653 25.4838H12.7298L12.4526 25.7302L12.4748 26.7943L8.92676 25.0918L10.1686 26.1222L12.6855 27.8807H16.9985L19.5265 26.1222L20.7572 25.0918L17.2203 26.7943Z" fill="#C0AC9D" stroke="#C0AC9D" stroke-width="0.25" stroke-linecap="round" stroke-linejoin="round"/>
<path d="M16.9417 23.2226L16.4094 22.8418H13.2827L12.7506 23.2226L12.4512 25.7315L12.7284 25.4851H16.9638L17.2521 25.7315L16.9417 23.2226Z" fill="#161616" stroke="#161616" stroke-width="0.25" stroke-linecap="round" stroke-linejoin="round"/>
<path d="M28.2527 9.94911L29.1952 5.31217L27.7759 1L16.9434 9.12035L21.1122 12.682L26.9998 14.4181L28.2971 12.8837L27.7316 12.4692L28.6297 11.6405L27.9423 11.1028L28.8404 10.4084L28.2527 9.94911Z" fill="#763E1A" stroke="#763E1A" stroke-width="0.25" stroke-linecap="round" stroke-linejoin="round"/>
<path d="M0.5 5.31217L1.45354 9.94911L0.84372 10.4084L1.7529 11.1028L1.06547 11.6405L1.96357 12.4692L1.3981 12.8837L2.69535 14.4181L8.58293 12.682L12.7518 9.12035L1.91922 1L0.5 5.31217Z" fill="#763E1A" stroke="#763E1A" stroke-width="0.25" stroke-linecap="round" stroke-linejoin="round"/>
<path d="M26.9998 14.4177L21.1123 12.6816L22.8863 15.3922L20.2363 20.6227L23.74 20.5779H28.9734L26.9998 14.4177Z" fill="#F5841F" stroke="#F5841F" stroke-width="0.25" stroke-linecap="round" stroke-linejoin="round"/>
<path d="M8.58145 12.6816L2.69395 14.4177L0.731445 20.5779H5.95372L9.45737 20.6227L6.80747 15.3922L8.58145 12.6816Z" fill="#F5841F" stroke="#F5841F" stroke-width="0.25" stroke-linecap="round" stroke-linejoin="round"/>
<path d="M16.5656 15.6852L16.9426 9.12171L18.65 4.45117H11.0439L12.7514 9.12171L13.1284 15.6852L13.2725 17.7461L13.2836 22.8423H16.4103L16.4214 17.7461L16.5656 15.6852Z" fill="#F5841F" stroke="#F5841F" stroke-width="0.25" stroke-linecap="round" stroke-linejoin="round"/>
</svg>
