<svg width="151" height="24" viewBox="0 0 151 24" fill="none" xmlns="http://www.w3.org/2000/svg">
<path d="M53.6725 13.5361L51.5895 20.2853H49.4216L46.5225 10.4028H48.903L50.6288 17.558H50.6884L52.7373 10.4028H54.6757L56.7246 17.558H56.7842L58.5185 10.4028H60.899L57.9914 20.2853H55.8235L53.7405 13.5361H53.6725ZM64.0617 18.9523C65.0224 18.9523 65.8216 18.3854 65.8216 17.5887V17.0524L64.1042 17.1443C63.2796 17.198 62.8034 17.535 62.8034 18.056C62.8034 18.6152 63.3051 18.9523 64.0617 18.9523ZM63.3306 20.4002C61.7832 20.4002 60.6015 19.4962 60.6015 18.1786C60.6015 16.8456 61.7407 16.0718 63.7727 15.9569L65.8216 15.8496V15.367C65.8216 14.6852 65.286 14.2868 64.4528 14.2868C63.6281 14.2868 63.101 14.6545 62.9905 15.1985H60.9586C61.0436 13.7735 62.3869 12.793 64.5463 12.793C66.6378 12.793 67.9981 13.7659 67.9981 15.2444V20.293H65.8556V19.1668H65.8131C65.354 19.9406 64.3508 20.4002 63.3306 20.4002ZM69.4859 10.4028H71.7049V20.2853H69.4859V10.4028ZM73.2522 10.4028H75.4712V20.2853H73.2522V10.4028ZM80.6233 14.2638C79.6541 14.2638 78.9484 14.9303 78.8719 15.842H82.3321C82.2896 14.9074 81.6095 14.2638 80.6233 14.2638ZM82.3661 18.0407H84.4066C84.16 19.4809 82.7062 20.4462 80.6913 20.4462C78.1832 20.4462 76.6784 18.9983 76.6784 16.654C76.6784 14.3098 78.2002 12.793 80.6063 12.793C82.9783 12.793 84.4746 14.2409 84.4746 16.4702V17.083H78.8634V17.2056C78.8634 18.2552 79.6031 18.9753 80.7338 18.9753C81.533 18.96 82.1536 18.5999 82.3661 18.0407ZM86.2005 11.2531H88.4194V12.9462H89.9243V14.4554H88.4194V17.964C88.4194 18.5233 88.7255 18.7914 89.3801 18.7914C89.5757 18.7914 89.7797 18.7761 89.9158 18.7608V20.2317C89.6862 20.2776 89.3036 20.3159 88.8615 20.3159C86.9486 20.3159 86.2005 19.7414 86.2005 18.3088V14.4554H85.0527V12.9462H86.2005V11.2531ZM96.1731 20.4538C92.9849 20.4538 90.987 18.531 90.987 15.3364C90.987 12.1494 93.0019 10.2266 96.1731 10.2266C98.8087 10.2266 100.815 11.7358 100.994 13.9421H98.7577C98.5451 12.7317 97.5079 11.9349 96.1731 11.9349C94.4387 11.9349 93.325 13.2449 93.325 15.321C93.325 17.4278 94.4302 18.7301 96.1816 18.7301C97.5419 18.7301 98.5196 18.01 98.7662 16.8379H101.002C100.739 19.0596 98.8682 20.4538 96.1731 20.4538ZM105.959 20.4385C103.493 20.4385 101.92 19.0136 101.92 16.6081C101.92 14.2332 103.519 12.7853 105.959 12.7853C108.399 12.7853 109.997 14.2255 109.997 16.6081C109.997 19.0213 108.424 20.4385 105.959 20.4385ZM105.959 18.914C107.047 18.914 107.736 18.0866 107.736 16.6157C107.736 15.1602 107.038 14.3175 105.959 14.3175C104.879 14.3175 104.173 15.1602 104.173 16.6157C104.173 18.0866 104.87 18.914 105.959 18.914ZM111.136 20.2853V12.9462H113.279V14.2562H113.321C113.755 13.3445 114.614 12.8083 115.872 12.8083C117.683 12.8083 118.694 13.8348 118.694 15.5509V20.2853H116.475V15.9722C116.475 15.0146 115.974 14.463 114.979 14.463C113.984 14.463 113.355 15.1219 113.355 16.0718V20.2853H111.136ZM120.097 20.2853V12.9462H122.24V14.2562H122.282C122.716 13.3445 123.574 12.8083 124.824 12.8083C126.635 12.8083 127.647 13.8348 127.647 15.5509V20.2853H125.428V15.9722C125.428 15.0146 124.926 14.463 123.932 14.463C122.937 14.463 122.308 15.1219 122.308 16.0718V20.2853H120.097ZM132.722 14.2638C131.753 14.2638 131.048 14.9303 130.971 15.842H134.431C134.389 14.9074 133.709 14.2638 132.722 14.2638ZM134.457 18.0407H136.497C136.251 19.4809 134.797 20.4462 132.782 20.4462C130.274 20.4462 128.769 18.9983 128.769 16.654C128.769 14.3098 130.291 12.793 132.697 12.793C135.069 12.793 136.565 14.2409 136.565 16.4702V17.083H130.954V17.2056C130.954 18.2552 131.694 18.9753 132.824 18.9753C133.632 18.96 134.253 18.5999 134.457 18.0407ZM145.101 15.6734H143.044C142.916 14.8997 142.346 14.3558 141.437 14.3558C140.34 14.3558 139.66 15.1908 139.66 16.6081C139.66 18.056 140.34 18.8757 141.445 18.8757C142.338 18.8757 142.908 18.3931 143.052 17.5963H145.118C145.008 19.3277 143.571 20.4462 141.428 20.4462C138.971 20.4462 137.415 19.0059 137.415 16.6157C137.415 14.2638 138.971 12.793 141.411 12.793C143.605 12.7853 145.008 14.011 145.101 15.6734ZM146.776 11.2531H148.995V12.9462H150.5V14.4554H148.995V17.964C148.995 18.5233 149.301 18.7914 149.956 18.7914C150.151 18.7914 150.355 18.7761 150.491 18.7608V20.2317C150.262 20.2776 149.888 20.3159 149.437 20.3159C147.524 20.3159 146.776 19.7414 146.776 18.3088V14.4554H145.628V12.9462H146.776V11.2531Z" fill="white"/>
<path d="M8.53067 4.66348C14.9221 -1.55449 25.2824 -1.55449 31.6821 4.66348L32.4511 5.41095C32.7736 5.72308 32.7736 6.22414 32.4511 6.53627L29.8218 9.09902C29.6647 9.25509 29.4001 9.25509 29.243 9.09902L28.1846 8.07228C23.728 3.7353 16.4931 3.7353 12.0365 8.07228L10.9037 9.17295C10.7466 9.32902 10.482 9.32902 10.3249 9.17295L7.68729 6.61019C7.36483 6.29806 7.36483 5.79701 7.68729 5.48488L8.53067 4.66348ZM37.1227 9.95328L39.4627 12.2285C39.7852 12.5407 39.7852 13.0417 39.4627 13.3539L28.904 23.6295C28.5815 23.9417 28.0689 23.9417 27.7464 23.6295L20.247 16.3355C20.1643 16.2616 20.0403 16.2616 19.9576 16.3355L12.4664 23.6295C12.144 23.9417 11.6313 23.9417 11.3088 23.6295L0.74185 13.3621C0.419383 13.0499 0.419383 12.5489 0.74185 12.2368L3.0818 9.96149C3.40427 9.64936 3.91691 9.64936 4.23938 9.96149L11.7388 17.2555C11.8215 17.3294 11.9455 17.3294 12.0282 17.2555L19.5194 9.96149C19.8418 9.64936 20.3545 9.64936 20.6769 9.96149L28.1763 17.2555C28.259 17.3294 28.3831 17.3294 28.4657 17.2555L35.9652 9.96149C36.2794 9.64115 36.8003 9.64115 37.1227 9.95328Z" fill="#3B99FC"/>
</svg>
